<?xml version="1.0" encoding="UTF-8" standalone="no"?>
<svg
   width="900"
   height="241"
   viewBox="47 54 112 30"
   role="img"
   aria-label="Enrico Hoffmann Logo"
   version="1.1"
   id="svg3"
   sodipodi:docname="LogSVG01_edited_final.svg"
   inkscape:version="1.4.2 (ebf0e94, 2025-05-08)"
   xmlns:inkscape="http://www.inkscape.org/namespaces/inkscape"
   xmlns:sodipodi="http://sodipodi.sourceforge.net/DTD/sodipodi-0.dtd"
   xmlns="http://www.w3.org/2000/svg"
   xmlns:svg="http://www.w3.org/2000/svg">
  <sodipodi:namedview
     id="namedview3"
     pagecolor="#505050"
     bordercolor="#eeeeee"
     borderopacity="1"
     inkscape:showpageshadow="0"
     inkscape:pageopacity="0"
     inkscape:pagecheckerboard="0"
     inkscape:deskcolor="#505050"
     inkscape:zoom="1.3422222"
     inkscape:cx="276.03477"
     inkscape:cy="64.445364"
     inkscape:window-width="2560"
     inkscape:window-height="1369"
     inkscape:window-x="-8"
     inkscape:window-y="-8"
     inkscape:window-maximized="1"
     inkscape:current-layer="svg3" />
  <defs
     id="defs2">
    <!-- Trennung zwischen Monogramm (links) und Text (rechts) -->
    <clipPath
       id="clip-mono">
      <rect
         x="47"
         y="54"
         width="41.5"
         height="30"
         id="rect1" />
    </clipPath>
    <clipPath
       id="clip-text">
      <rect
         x="88.5"
         y="54"
         width="70.5"
         height="30"
         id="rect2" />
    </clipPath>
  </defs>
  <path
     d="m 49.349774,82.025738 c -0.04572,-0.04572 -0.08313,-5.937526 -0.08313,-13.092899 v -13.00977 h 11.098857 11.098856 l -0.40469,0.716992 c -0.22258,0.394345 -0.77977,1.390341 -1.238201,2.213323 l -0.833511,1.496332 -7.491464,0.03215 -7.491465,0.03215 v 2.804647 2.804648 h 5.174813 c 2.846147,0 5.174812,0.03475 5.174812,0.07721 0,0.04246 -0.189419,0.393167 -0.420931,0.779339 -0.231512,0.386171 -0.796578,1.389507 -1.255701,2.229635 l -0.834769,1.527505 h -3.919112 -3.919112 v 3.429092 3.429093 h 3.58621 3.586209 l 0.670662,-1.215769 c 0.368865,-0.668673 1.482947,-2.702749 2.47574,-4.520168 0.992793,-1.817419 2.113191,-3.851494 2.489774,-4.520167 l 0.684697,-1.21577 h 4.956853 4.956853 l 0.08011,-0.766457 c 0.04406,-0.421551 0.08011,-2.694105 0.08011,-5.050118 v -4.283661 h 2.306844 2.306844 V 69.015968 82.108867 H 79.87909 77.572246 v -5.735936 -5.735937 h -3.523214 -3.523213 l -1.234134,2.27567 c -0.678774,1.251619 -1.790704,3.313751 -2.470956,4.582515 -0.680251,1.268764 -1.527431,2.825869 -1.882622,3.460234 l -0.645802,1.153389 -7.4297,3.3e-5 c -4.086336,1.8e-5 -7.467109,-0.03738 -7.512831,-0.0831 z m 52.930236,-0.04302 c -1.85094,-0.390869 -3.105781,-2.129788 -2.974899,-4.122515 0.341148,-5.194083 8.318459,-4.989209 8.318459,0.213636 0,2.769982 -2.40516,4.529389 -5.34356,3.908879 z m 2.11424,-2.152007 c 1.13187,-0.756138 1.17173,-2.796354 0.0687,-3.519052 -0.88748,-0.581502 -2.10697,-0.220495 -2.58402,0.76495 -0.87706,1.811782 0.94287,3.804531 2.51527,2.754102 z m 28.59767,1.98217 c -2.89853,-1.349711 -2.59157,-6.722102 0.43482,-7.610359 1.14798,-0.336937 2.08227,-0.175393 2.80285,0.484633 l 0.44774,0.410121 v -0.422074 -0.422074 h 1.12225 1.12225 v 3.80803 3.80803 l -1.09107,-0.03603 -1.09108,-0.03603 -0.0623,-0.494997 -0.0623,-0.494997 -0.21164,0.324695 c -0.57867,0.887831 -2.25058,1.221604 -3.41143,0.681048 z m 3.02343,-2.089936 c 0.9681,-0.892359 0.83646,-2.995457 -0.22174,-3.542674 -1.62466,-0.840142 -3.10097,1.262824 -2.16167,3.079232 0.4456,0.861688 1.68906,1.103473 2.38341,0.463442 z m -46.193162,-3.505882 0.03244,-5.642416 0.748166,-0.03876 c 0.411491,-0.02132 0.929216,-0.005 1.150499,0.03628 l 0.402334,0.07503 0.0341,2.145874 0.0341,2.145874 1.898697,0.03441 1.898697,0.03441 0.03406,-2.216556 0.03406,-2.216555 h 1.184596 1.184595 l 0.03244,5.642416 0.03244,5.642416 H 97.275212 96.026999 V 79.48704 77.114601 l -1.901588,0.03442 -1.901587,0.03442 -0.03392,2.338018 -0.03392,2.338018 h -1.183115 -1.183115 z m 19.048322,2.7121 v -2.930315 h -0.62347 -0.62347 V 75.137689 74.27653 l 0.60631,-0.08339 0.60631,-0.08339 0.0764,-0.817633 c 0.19956,-2.137051 2.23128,-3.313977 4.21572,-2.442062 l 0.32988,0.144942 -0.26586,0.85976 -0.26587,0.85976 -0.57949,-0.05568 c -0.75318,-0.07237 -1.10722,0.238056 -1.10722,0.97082 v 0.498778 h 1.16683 1.16684 l 0.0781,-0.747405 c 0.2278,-2.179389 1.913,-3.286772 3.9602,-2.602323 0.59472,0.198839 0.6316,0.255955 0.47714,0.739019 -0.36314,1.135712 -0.34393,1.114377 -1.00362,1.114377 -0.78189,0 -1.10712,0.29304 -1.10712,0.997554 v 0.498778 h 0.87286 0.87286 v 0.935207 0.935207 h -0.87286 -0.87286 v 2.930315 2.930316 h -1.18459 -1.1846 v -2.930316 -2.930315 h -1.18459 -1.1846 v 2.930315 2.930316 h -1.18459 -1.1846 z m 9.47676,-0.87286 v -3.803175 h 1.05991 1.0599 v 0.429071 c 0,0.511053 0.18432,0.673656 0.37012,0.326499 0.69186,-1.292754 3.6524,-1.16762 4.26657,0.180336 l 0.13065,0.286734 0.37897,-0.431625 c 1.41987,-1.617141 4.06891,-1.186209 4.64561,0.755721 0.13719,0.462 0.18362,1.306182 0.18362,3.338973 v 2.720642 h -1.1846 -1.18459 v -2.539417 c 0,-3.155789 -0.29815,-3.720995 -1.66218,-3.151067 -0.75421,0.315131 -0.83171,0.624027 -0.83171,3.3151 v 2.375384 h -1.18459 -1.1846 v -2.373196 c 0,-3.191583 -0.34028,-3.869608 -1.6644,-3.316358 -0.75169,0.314078 -0.82948,0.624898 -0.82948,3.31417 v 2.375384 h -1.1846 -1.1846 z m 21.57211,-0.0049 v -3.808031 l 1.09108,0.03603 1.09107,0.03603 0.0379,0.589008 0.0379,0.589009 0.39749,-0.452715 c 1.25661,-1.431204 3.65323,-1.163432 4.50569,0.503417 l 0.36715,0.717899 0.0551,2.798693 0.0551,2.798693 h -1.19114 -1.19115 l -0.0407,-2.422754 c -0.0517,-3.078053 -0.37982,-3.643333 -1.85764,-3.200566 -0.89793,0.269027 -0.98769,0.56741 -0.98823,3.285302 l -4.6e-4,2.338018 h -1.1846 -1.1846 z m 8.50856,0.03603 0.033,-3.772002 h 1.0599 1.05991 l 0.0381,0.593678 0.0381,0.593679 0.33092,-0.393282 c 1.23634,-1.469298 3.77462,-1.221268 4.63456,0.452868 0.31173,0.606885 0.32135,0.698938 0.36163,3.460266 l 0.0414,2.836795 h -1.18527 -1.18527 l -0.0407,-2.406286 c -0.0512,-3.026883 -0.30713,-3.503878 -1.71255,-3.191967 -0.98957,0.21962 -1.06666,0.439741 -1.11002,3.169256 l -0.0386,2.428997 h -1.17902 -1.17901 z M 118.83989,67.856611 c -3.46167,-0.982607 -3.89706,-5.869929 -0.66469,-7.46122 1.02294,-0.503594 2.60956,-0.583188 3.75704,-0.188474 0.72173,0.248265 0.72861,0.264254 0.47424,1.102446 -0.31761,1.046604 -0.39566,1.134623 -0.78176,0.881641 -1.31177,-0.859508 -3.0904,0.161974 -3.0904,1.774846 0,1.825054 1.41808,2.500264 3.4334,1.634789 0.17108,-0.07347 0.70286,1.350305 0.65605,1.756496 -0.0507,0.439841 -2.74229,0.795135 -3.78388,0.499476 z m 7.24958,0.03443 c -3.69884,-0.779148 -4.13666,-5.966999 -0.64031,-7.587158 2.82723,-1.310099 6.02558,0.594068 6.04612,3.599618 0.0195,2.848365 -2.38697,4.62345 -5.40581,3.98754 z m 1.98147,-2.086146 c 1.32706,-0.666736 1.38496,-2.845564 0.0971,-3.655643 -0.86979,-0.547131 -2.14521,-0.07122 -2.53344,0.945327 -0.68564,1.795334 0.85223,3.506177 2.43629,2.710316 z M 89.916979,62.407171 v -5.361854 h 3.429093 3.429093 v 0.979791 0.979791 l -0.766458,0.08011 c -0.421551,0.04406 -1.431575,0.08011 -2.244497,0.08011 h -1.478039 v 1.059901 1.059902 h 1.995108 1.995109 v 1.059901 1.059901 h -1.995109 -1.995108 v 1.122249 1.122248 h 2.306844 2.306844 v 1.059902 1.059901 h -3.49144 -3.49144 z m 8.229823,1.558679 v -3.803176 h 1.04656 c 1.143378,0 1.197938,0.03565 1.197938,0.782732 v 0.388251 l 0.40526,-0.441827 c 1.10643,-1.206281 3.03699,-1.275825 4.10829,-0.14799 0.69993,0.736869 0.77176,1.101946 0.82398,4.18839 l 0.048,2.836795 h -1.18691 -1.1869 l -0.0407,-2.400365 c -0.0534,-3.14902 -0.39739,-3.773284 -1.81701,-3.297472 -0.88581,0.296898 -0.96208,0.545307 -1.00555,3.275032 l -0.0386,2.422805 h -1.177183 -1.177185 z m 8.728598,0.01454 c 0,-4.3431 -0.14353,-3.931561 1.34046,-3.843327 l 0.90404,0.05375 0.007,0.702921 c 0.006,0.595196 0.0301,0.666529 0.15587,0.465461 0.59805,-0.956082 1.49989,-1.50446 2.34205,-1.424117 l 0.42506,0.04055 v 1.045285 1.045286 l -0.79207,0.03095 c -1.60697,0.06279 -1.93437,0.651466 -1.99288,3.583245 l -0.0417,2.088629 h -1.17408 -1.17409 z m 5.89,-0.04572 0.033,-3.834349 0.62347,-0.03996 c 0.34291,-0.02198 0.86195,-0.0045 1.15342,0.03881 l 0.52995,0.07878 v 3.795535 3.795535 h -1.18639 -1.1864 z m 0.51393,-4.637147 c -1.03162,-0.442041 -0.75952,-2.106777 0.37927,-2.320415 1.28158,-0.240426 2.16538,1.212361 1.2568,2.065929 -0.32552,0.30581 -1.19916,0.441702 -1.63607,0.254486 z"
     fill="#3DCFB6"
     clip-path="url(#clip-mono)"
     id="path2" />
  <path
     d="m 49.349774,82.025738 c -0.04572,-0.04572 -0.08313,-5.937526 -0.08313,-13.092899 v -13.00977 h 11.098857 11.098856 l -0.40469,0.716992 c -0.22258,0.394345 -0.77977,1.390341 -1.238201,2.213323 l -0.833511,1.496332 -7.491464,0.03215 -7.491465,0.03215 v 2.804647 2.804648 h 5.174813 c 2.846147,0 5.174812,0.03475 5.174812,0.07721 0,0.04246 -0.189419,0.393167 -0.420931,0.779339 -0.231512,0.386171 -0.796578,1.389507 -1.255701,2.229635 L 61.84325,70.637 h -3.919112 -3.919112 v 3.429092 3.429093 h 3.58621 3.586209 l 0.670662,-1.215769 c 0.368865,-0.668673 1.482947,-2.702749 2.47574,-4.520168 0.992793,-1.817419 2.113191,-3.851494 2.489774,-4.520167 l 0.684697,-1.21577 h 4.956853 4.956853 l 0.08011,-0.766457 c 0.04406,-0.421551 0.08011,-2.694105 0.08011,-5.050118 v -4.283661 h 2.306844 2.306844 V 69.015968 82.108867 H 79.87909 77.572246 v -5.735936 -5.735937 h -3.523214 -3.523213 l -1.234134,2.27567 c -0.678774,1.251619 -1.790704,3.313751 -2.470956,4.582515 -0.680251,1.268764 -1.527431,2.825869 -1.882622,3.460234 l -0.645802,1.153389 -7.4297,3.3e-5 c -4.086336,1.8e-5 -7.467109,-0.03738 -7.512831,-0.0831 z m 52.930236,-0.04302 c -1.85094,-0.390869 -3.105781,-2.129788 -2.974899,-4.122515 0.341148,-5.194083 8.318459,-4.989209 8.318459,0.213636 0,2.769982 -2.40516,4.529389 -5.34356,3.908879 z m 2.11424,-2.152007 c 1.13187,-0.756138 1.17173,-2.796354 0.0687,-3.519052 -0.88748,-0.581502 -2.10697,-0.220495 -2.58402,0.76495 -0.87706,1.811782 0.94287,3.804531 2.51527,2.754102 z m 28.59767,1.98217 c -2.89853,-1.349711 -2.59157,-6.722102 0.43482,-7.610359 1.14798,-0.336937 2.08227,-0.175393 2.80285,0.484633 l 0.44774,0.410121 v -0.422074 -0.422074 h 1.12225 1.12225 v 3.80803 3.80803 l -1.09107,-0.03603 -1.09108,-0.03603 -0.0623,-0.494997 -0.0623,-0.494997 -0.21164,0.324695 c -0.57867,0.887831 -2.25058,1.221604 -3.41143,0.681048 z m 3.02343,-2.089936 c 0.9681,-0.892359 0.83646,-2.995457 -0.22174,-3.542674 -1.62466,-0.840142 -3.10097,1.262824 -2.16167,3.079232 0.4456,0.861688 1.68906,1.103473 2.38341,0.463442 z m -46.193162,-3.505882 0.03244,-5.642416 0.748166,-0.03876 c 0.411491,-0.02132 0.929216,-0.005 1.150499,0.03628 l 0.402334,0.07503 0.0341,2.145874 0.0341,2.145874 1.898697,0.03441 1.898697,0.03441 0.03406,-2.216556 0.03406,-2.216555 h 1.184596 1.184595 l 0.03244,5.642416 0.03244,5.642416 h -1.2482 -1.248213 V 79.48704 77.114601 l -1.901588,0.03442 -1.901587,0.03442 -0.03392,2.338018 -0.03392,2.338018 h -1.183115 -1.183115 z m 19.048322,2.7121 v -2.930315 h -0.62347 -0.62347 V 75.137689 74.27653 l 0.60631,-0.08339 0.60631,-0.08339 0.0764,-0.817633 c 0.19956,-2.137051 2.23128,-3.313977 4.21572,-2.442062 l 0.32988,0.144942 -0.26586,0.85976 -0.26587,0.85976 -0.57949,-0.05568 c -0.75318,-0.07237 -1.10722,0.238056 -1.10722,0.97082 v 0.498778 h 1.16683 1.16684 l 0.0781,-0.747405 c 0.2278,-2.179389 1.913,-3.286772 3.9602,-2.602323 0.59472,0.198839 0.6316,0.255955 0.47714,0.739019 -0.36314,1.135712 -0.34393,1.114377 -1.00362,1.114377 -0.78189,0 -1.10712,0.29304 -1.10712,0.997554 v 0.498778 h 0.87286 0.87286 v 0.935207 0.935207 h -0.87286 -0.87286 v 2.930315 2.930316 h -1.18459 -1.1846 v -2.930316 -2.930315 h -1.18459 -1.1846 v 2.930315 2.930316 h -1.18459 -1.1846 z m 9.47676,-0.87286 v -3.803175 h 1.05991 1.0599 v 0.429071 c 0,0.511053 0.18432,0.673656 0.37012,0.326499 0.69186,-1.292754 3.6524,-1.16762 4.26657,0.180336 l 0.13065,0.286734 0.37897,-0.431625 c 1.41987,-1.617141 4.06891,-1.186209 4.64561,0.755721 0.13719,0.462 0.18362,1.306182 0.18362,3.338973 v 2.720642 h -1.1846 -1.18459 v -2.539417 c 0,-3.155789 -0.29815,-3.720995 -1.66218,-3.151067 -0.75421,0.315131 -0.83171,0.624027 -0.83171,3.3151 v 2.375384 h -1.18459 -1.1846 v -2.373196 c 0,-3.191583 -0.34028,-3.869608 -1.6644,-3.316358 -0.75169,0.314078 -0.82948,0.624898 -0.82948,3.31417 v 2.375384 h -1.1846 -1.1846 z m 21.57211,-0.0049 v -3.808031 l 1.09108,0.03603 1.09107,0.03603 0.0379,0.589008 0.0379,0.589009 0.39749,-0.452715 c 1.25661,-1.431204 3.65323,-1.163432 4.50569,0.503417 l 0.36715,0.717899 0.0551,2.798693 0.0551,2.798693 h -1.19114 -1.19115 l -0.0407,-2.422754 c -0.0517,-3.078053 -0.37982,-3.643333 -1.85764,-3.200566 -0.89793,0.269027 -0.98769,0.56741 -0.98823,3.285302 l -4.6e-4,2.338018 h -1.1846 -1.1846 z m 8.50856,0.03603 0.033,-3.772002 h 1.0599 1.05991 l 0.0381,0.593678 0.0381,0.593679 0.33092,-0.393282 c 1.23634,-1.469298 3.77462,-1.221268 4.63456,0.452868 0.31173,0.606885 0.32135,0.698938 0.36163,3.460266 l 0.0414,2.836795 h -1.18527 -1.18527 l -0.0407,-2.406286 c -0.0512,-3.026883 -0.30713,-3.503878 -1.71255,-3.191967 -0.98957,0.21962 -1.06666,0.439741 -1.11002,3.169256 l -0.0386,2.428997 h -1.17902 -1.17901 z M 118.83989,67.856611 c -3.46167,-0.982607 -3.89706,-5.869929 -0.66469,-7.46122 1.02294,-0.503594 2.60956,-0.583188 3.75704,-0.188474 0.72173,0.248265 0.72861,0.264254 0.47424,1.102446 -0.31761,1.046604 -0.39566,1.134623 -0.78176,0.881641 -1.31177,-0.859508 -3.0904,0.161974 -3.0904,1.774846 0,1.825054 1.41808,2.500264 3.4334,1.634789 0.17108,-0.07347 0.70286,1.350305 0.65605,1.756496 -0.0507,0.439841 -2.74229,0.795135 -3.78388,0.499476 z m 7.24958,0.03443 c -3.69884,-0.779148 -4.13666,-5.966999 -0.64031,-7.587158 2.82723,-1.310099 6.02558,0.594068 6.04612,3.599618 0.0195,2.848365 -2.38697,4.62345 -5.40581,3.98754 z m 1.98147,-2.086146 c 1.32706,-0.666736 1.38496,-2.845564 0.0971,-3.655643 -0.86979,-0.547131 -2.14521,-0.07122 -2.53344,0.945327 -0.68564,1.795334 0.85223,3.506177 2.43629,2.710316 z M 89.916979,62.407171 v -5.361854 h 3.429093 3.429093 v 0.979791 0.979791 l -0.766458,0.08011 c -0.421551,0.04406 -1.431575,0.08011 -2.244497,0.08011 h -1.478039 v 1.059901 1.059902 h 1.995108 1.995109 v 1.059901 1.059901 h -1.995109 -1.995108 v 1.122249 1.122248 h 2.306844 2.306844 v 1.059902 1.059901 h -3.49144 -3.49144 z m 8.229823,1.558679 v -3.803176 h 1.04656 c 1.143378,0 1.197938,0.03565 1.197938,0.782732 v 0.388251 l 0.40526,-0.441827 c 1.10643,-1.206281 3.03699,-1.275825 4.10829,-0.14799 0.69993,0.736869 0.77176,1.101946 0.82398,4.18839 l 0.048,2.836795 h -1.18691 -1.1869 l -0.0407,-2.400365 c -0.0534,-3.14902 -0.39739,-3.773284 -1.81701,-3.297472 -0.88581,0.296898 -0.96208,0.545307 -1.00555,3.275032 l -0.0386,2.422805 h -1.177183 -1.177185 z m 8.728598,0.01454 c 0,-4.3431 -0.14353,-3.931561 1.34046,-3.843327 l 0.90404,0.05375 0.007,0.702921 c 0.006,0.595196 0.0301,0.666529 0.15587,0.465461 0.59805,-0.956082 1.49989,-1.50446 2.34205,-1.424117 l 0.42506,0.04055 v 1.045285 1.045286 l -0.79207,0.03095 c -1.60697,0.06279 -1.93437,0.651466 -1.99288,3.583245 l -0.0417,2.088629 h -1.17408 -1.17409 z m 5.89,-0.04572 0.033,-3.834349 0.62347,-0.03996 c 0.34291,-0.02198 0.86195,-0.0045 1.15342,0.03881 l 0.52995,0.07878 v 3.795535 3.795535 h -1.18639 -1.1864 z m 0.51393,-4.637147 c -1.03162,-0.442041 -0.75952,-2.106777 0.37927,-2.320415 1.28158,-0.240426 2.16538,1.212361 1.2568,2.065929 -0.32552,0.30581 -1.19916,0.441702 -1.63607,0.254486 z"
     fill="#ffffff"
     clip-path="url(#clip-text)"
     id="path3"
     transform="matrix(1.0037413,0,0,1.0190139,-5.7101462,-1.4049756)" />
</svg>
