<?xml version="1.0" encoding="UTF-8" standalone="no"?>
<svg
   viewBox="47 54 41.5 30"
   width="100%"
   height="100%"
   preserveAspectRatio="xMidYMid meet"
   role="img"
   aria-label="Enrico Hoffmann Logo"
   version="1.1"
   id="svg3"
   sodipodi:docname="LogSVG02Outlinel.svg"
   inkscape:version="1.4.2 (ebf0e94, 2025-05-08)"
   xmlns:inkscape="http://www.inkscape.org/namespaces/inkscape"
   xmlns:sodipodi="http://sodipodi.sourceforge.net/DTD/sodipodi-0.dtd"
   xmlns="http://www.w3.org/2000/svg"
   xmlns:svg="http://www.w3.org/2000/svg">
  <sodipodi:namedview
     id="namedview3"
     pagecolor="#505050"
     bordercolor="#eeeeee"
     borderopacity="1"
     inkscape:showpageshadow="0"
     inkscape:pageopacity="0"
     inkscape:pagecheckerboard="0"
     inkscape:deskcolor="#505050"
     showguides="true"
     inkscape:zoom="1.3422222"
     inkscape:cx="447.7649"
     inkscape:cy="117.34272"
     inkscape:window-width="1369"
     inkscape:window-height="1369"
     inkscape:window-x="2552"
     inkscape:window-y="209"
     inkscape:window-maximized="1"
     inkscape:current-layer="svg3" />
  <defs
     id="defs2">
    <!-- Trennung zwischen Monogramm (links) und Text (rechts) -->
    <clipPath
       id="clip-mono">
      <rect
         x="47"
         y="54"
         width="41.5"
         height="30"
         id="rect1" />
    </clipPath>
  </defs>
  <path
     d="M 49.35,82.03 C 49.3,81.98 49.27,76.09 49.27,68.94 V 55.93 h 11.1 11.1 l -0.4,0.72 c -0.22,0.39 -0.78,1.39 -1.24,2.21 l -0.83,1.5 -7.49,0.03 -7.49,0.03 v 2.8 2.8 h 5.17 c 2.85,0 5.17,0.03 5.17,0.08 0,0.04 -0.19,0.39 -0.42,0.78 -0.23,0.39 -0.8,1.39 -1.26,2.23 l -0.83,1.53 h -3.92 -3.92 v 3.43 3.43 h 3.59 3.59 l 0.67,-1.22 c 0.37,-0.67 1.48,-2.7 2.48,-4.52 0.99,-1.82 2.11,-3.85 2.49,-4.52 l 0.68,-1.22 h 4.96 4.96 l 0.08,-0.77 c 0.04,-0.42 0.08,-2.69 0.08,-5.05 v -4.28 h 2.31 2.31 v 13.1 13.09 h -2.33 -2.31 v -5.74 -5.74 h -3.52 -3.52 l -1.23,2.28 c -0.68,1.25 -1.79,3.31 -2.47,4.58 -0.68,1.27 -1.53,2.83 -1.88,3.46 L 64.3,82.1 h -7.43 c -4.09,0 -7.47,-0.04 -7.51,-0.08 z m 52.93,-0.04 c -1.85,-0.39 -3.11,-2.13 -2.97,-4.12 0.34,-5.19 8.32,-4.99 8.32,0.21 0,2.77 -2.41,4.53 -5.34,3.91 z m 2.11,-2.15 c 1.13,-0.76 1.17,-2.8 0.07,-3.52 -0.89,-0.58 -2.11,-0.22 -2.58,0.76 -0.88,1.81 0.94,3.8 2.52,2.75 z m 28.6,1.98 c -2.9,-1.35 -2.59,-6.72 0.43,-7.61 1.15,-0.34 2.08,-0.18 2.8,0.48 l 0.45,0.41 v -0.42 -0.42 h 1.12 1.12 v 3.81 3.81 l -1.09,-0.04 -1.09,-0.04 -0.06,-0.49 -0.06,-0.49 -0.21,0.32 c -0.58,0.89 -2.25,1.22 -3.41,0.68 z m 3.02,-2.09 c 0.97,-0.89 0.84,-3 -0.22,-3.54 -1.62,-0.84 -3.1,1.26 -2.16,3.08 0.45,0.86 1.69,1.1 2.38,0.46 z m -46.19,-3.51 0.03,-5.64 0.75,-0.04 c 0.41,-0.02 0.93,-0.01 1.15,0.04 l 0.4,0.08 0.03,2.15 0.03,2.15 1.9,0.03 1.9,0.03 0.03,-2.22 0.03,-2.22 h 1.18 1.18 l 0.03,5.64 0.03,5.64 h -1.21 -1.25 v -2.37 -2.38 l -1.9,0.03 -1.9,0.03 -0.03,2.34 -0.03,2.34 h -1.18 -1.18 z m 19.05,2.71 V 76 h -0.62 -0.62 v -0.86 -0.86 l 0.61,-0.08 0.61,-0.08 0.08,-0.82 c 0.2,-2.14 2.23,-3.31 4.22,-2.44 l 0.33,0.14 -0.27,0.86 -0.27,0.86 -0.58,-0.06 c -0.75,-0.07 -1.11,0.24 -1.11,0.97 v 0.5 h 1.17 1.17 l 0.08,-0.75 c 0.23,-2.18 1.91,-3.29 3.96,-2.6 0.59,0.2 0.63,0.26 0.48,0.74 -0.36,1.14 -0.34,1.11 -1,1.11 -0.78,0 -1.11,0.29 -1.11,1 v 0.5 h 0.87 0.87 v 0.94 0.94 H 116.87 116 v 2.93 2.93 h -1.18 -1.18 v -2.93 -2.93 h -1.18 -1.18 v 2.93 2.93 h -1.18 -1.18 z m 9.48,-0.87 v -3.8 h 1.06 1.06 v 0.43 c 0,0.51 0.18,0.67 0.37,0.33 0.69,-1.29 3.65,-1.17 4.27,0.18 l 0.13,0.29 0.38,-0.43 c 1.42,-1.62 4.07,-1.19 4.65,0.76 0.14,0.46 0.18,1.31 0.18,3.34 v 2.72 h -1.18 -1.18 v -2.54 c 0,-3.16 -0.3,-3.72 -1.66,-3.15 -0.75,0.32 -0.83,0.62 -0.83,3.32 v 2.38 h -1.18 -1.18 v -2.37 c 0,-3.19 -0.34,-3.87 -1.66,-3.32 -0.75,0.31 -0.83,0.62 -0.83,3.31 v 2.38 h -1.18 -1.18 z m 21.57,0 v -3.81 l 1.09,0.04 1.09,0.04 0.04,0.59 0.04,0.59 0.4,-0.45 c 1.26,-1.43 3.65,-1.16 4.51,0.5 l 0.37,0.72 0.06,2.8 0.06,2.8 h -1.19 -1.19 l -0.04,-2.42 c -0.05,-3.08 -0.38,-3.64 -1.86,-3.2 -0.9,0.27 -0.99,0.57 -0.99,3.29 v 2.34 h -1.18 -1.18 z m 8.51,0.04 0.03,-3.77 h 1.06 1.06 l 0.04,0.59 0.04,0.59 0.33,-0.39 c 1.24,-1.47 3.77,-1.22 4.63,0.45 0.31,0.61 0.32,0.7 0.36,3.46 l 0.04,2.84 h -1.19 -1.19 l -0.04,-2.41 c -0.05,-3.03 -0.31,-3.5 -1.71,-3.19 -0.99,0.22 -1.07,0.44 -1.11,3.17 l -0.04,2.43 h -1.18 -1.18 z M 118.84,67.86 c -3.46,-0.98 -3.9,-5.87 -0.66,-7.46 1.02,-0.5 2.61,-0.58 3.76,-0.19 0.72,0.25 0.73,0.26 0.47,1.1 -0.32,1.05 -0.4,1.13 -0.78,0.88 -1.31,-0.86 -3.09,0.16 -3.09,1.77 0,1.83 1.42,2.5 3.43,1.63 0.17,-0.07 0.7,1.35 0.66,1.76 -0.05,0.44 -2.74,0.8 -3.78,0.5 z m 7.25,0.03 c -3.7,-0.78 -4.14,-5.97 -0.64,-7.59 2.83,-1.31 6.03,0.59 6.05,3.6 0.02,2.85 -2.39,4.62 -5.41,3.99 z m 1.98,-2.09 c 1.33,-0.67 1.38,-2.85 0.1,-3.66 -0.87,-0.55 -2.15,-0.07 -2.53,0.95 -0.69,1.8 0.85,3.51 2.44,2.71 z M 89.92,62.41 v -5.36 h 3.43 3.43 v 0.98 0.98 l -0.77,0.08 c -0.42,0.04 -1.43,0.08 -2.24,0.08 h -1.48 v 1.06 1.06 h 2 2 v 1.06 1.06 h -2 -2 v 1.12 1.12 h 2.31 2.31 v 1.06 1.06 h -3.49 -3.49 z m 8.23,1.56 v -3.8 h 1.05 c 1.14,0 1.2,0.04 1.2,0.78 v 0.39 l 0.41,-0.44 c 1.11,-1.21 3.04,-1.28 4.11,-0.15 0.7,0.74 0.77,1.1 0.82,4.19 l 0.05,2.84 h -1.19 -1.19 l -0.04,-2.4 c -0.05,-3.15 -0.4,-3.77 -1.82,-3.3 -0.89,0.3 -0.96,0.55 -1.01,3.28 l -0.04,2.42 h -1.18 -1.18 z m 8.73,0.01 c 0,-4.34 -0.14,-3.93 1.34,-3.84 l 0.9,0.05 0.01,0.7 c 0.01,0.6 0.03,0.67 0.16,0.47 0.6,-0.96 1.5,-1.5 2.34,-1.42 l 0.43,0.04 v 1.05 1.05 l -0.79,0.03 c -1.61,0.06 -1.93,0.65 -1.99,3.58 l -0.04,2.09 h -1.17 -1.17 z m 5.89,-0.05 0.03,-3.83 0.62,-0.04 c 0.34,-0.02 0.86,0 1.15,0.04 l 0.53,0.08 v 3.8 3.8 h -1.19 -1.19 z m 0.51,-4.64 c -1.03,-0.44 -0.76,-2.11 0.38,-2.32 1.28,-0.24 2.17,1.21 1.26,2.07 -0.33,0.31 -1.2,0.44 -1.64,0.25 z"
     fill="#3DCFB6"
     clip-path="url(#clip-mono)"
     id="path2"
     inkscape:label="path2"
     style="fill:none;fill-opacity:0.996078;stroke:#3dcfb6;stroke-width:0.497925;stroke-dasharray:none;stroke-dashoffset:0;stroke-opacity:1"
     transform="matrix(0.96006415,0,0,1,1.957697,0)" />
</svg>
