<svg width="11" height="11" viewBox="0 0 11 11" fill="none" xmlns="http://www.w3.org/2000/svg">
<path d="M9.19542 1.85729L0.918125 10.1267C0.802708 10.2419 0.678542 10.2948 0.545625 10.2852C0.41257 10.2756 0.288333 10.2131 0.172917 10.0977C0.057639 9.98229 0 9.85597 0 9.71875C0 9.58153 0.057639 9.45521 0.172917 9.33979L8.42146 1.08333H1.23708C1.08361 1.08333 0.954931 1.03181 0.851042 0.92875C0.747292 0.825695 0.695417 0.698056 0.695417 0.545834C0.695417 0.393472 0.747292 0.264444 0.851042 0.15875C0.954931 0.0529166 1.08361 0 1.23708 0H9.60875C9.79861 0 9.95771 0.0641665 10.086 0.1925C10.2145 0.320972 10.2788 0.48007 10.2788 0.669792V9.04167C10.2788 9.19514 10.2272 9.32375 10.1242 9.4275C10.0211 9.53139 9.89347 9.58333 9.74125 9.58333C9.58889 9.58333 9.45979 9.53139 9.35396 9.4275C9.24826 9.32375 9.19542 9.19514 9.19542 9.04167V1.85729Z" fill="#3DCFB6"/>
</svg>
