<svg width="18" height="18" viewBox="0 0 18 18" fill="none" xmlns="http://www.w3.org/2000/svg">
<path d="M 7.6,10.4 5.45,8.25 C 5.26667,8.06667 5.03333,7.975 4.75,7.975 4.46667,7.975 4.23333,8.06667 4.05,8.25 3.86667,8.43333 3.775,8.66667 3.775,8.95 c 0,0.28333 0.09167,0.51667 0.275,0.7 L 6.9,12.5 c 0.2,0.2 0.43333,0.3 0.7,0.3 0.26667,0 0.5,-0.1 0.7,-0.3 l 5.65,-5.65 c 0.1833,-0.18333 0.275,-0.41667 0.275,-0.7 0,-0.28333 -0.0917,-0.51667 -0.275,-0.7 -0.1833,-0.18333 -0.4167,-0.275 -0.7,-0.275 -0.2833,0 -0.5167,0.09167 -0.7,0.275 z" fill="#3DCFB6"/>
</svg>
